<?xml version="1.0" standalone="no"?>
<!DOCTYPE svg PUBLIC "-//W3C//DTD SVG 1.1//EN" "http://www.w3.org/Graphics/SVG/1.1/DTD/svg11.dtd" >
<svg>
<metadata>
Created by FontForge 20120731 at Sun Jun 30 20:41:47 2019
 By www
Copyright (c) 2012 by Lukas Bischoff. All rights reserved.
</metadata>
<defs>
<font id="zwodrei-Bold" horiz-adv-x="600" >
  <font-face 
    font-family="zwodrei"
    font-weight="700"
    font-stretch="normal"
    units-per-em="1000"
    panose-1="2 0 8 3 4 0 0 2 0 4"
    ascent="800"
    descent="-200"
    x-height="522"
    cap-height="715"
    bbox="-45 -239 943.033 893"
    underline-thickness="50"
    underline-position="-50"
    unicode-range="U+000D-2022"
  />
<missing-glyph horiz-adv-x="260" 
 />
    <glyph glyph-name=".notdef" horiz-adv-x="260" 
 />
    <glyph glyph-name="NULL" horiz-adv-x="0" 
 />
    <glyph glyph-name="NULL" horiz-adv-x="0" 
 />
    <glyph glyph-name="nonmarkingreturn" unicode="&#xd;" horiz-adv-x="260" 
 />
    <glyph glyph-name="space" unicode=" " horiz-adv-x="260" 
 />
    <glyph glyph-name="dollar" unicode="$" horiz-adv-x="559" 
d="M245 -7q-60 1 -110 11t-101 30q5 9 10 19q10 18 23 40q14 26 33 59q20 -7 58.5 -14t76.5 -7q28 0 50.5 3.5t38.5 11.5t25 22.5t9 36.5q0 19 -5.5 33t-15 23.5t-21.5 16.5t-25 12l-72 32q-32 13 -58.5 28t-46 36t-30.5 50t-11 70q0 88 45.5 141t126.5 62v103h106v-100
q36 -2 73 -11.5t77 -31.5l-57 -113q-34 14 -66 21t-66 7q-15 0 -29.5 -3t-26.5 -10t-19.5 -19.5t-7.5 -31.5q0 -24 13.5 -39.5t33 -26t42 -17.5t40.5 -14q34 -12 63 -28.5t50.5 -40.5t34 -58.5t12.5 -82.5q0 -80 -39.5 -132.5t-127.5 -75.5v-113h-106v101z" />
    <glyph glyph-name="percent" unicode="%" horiz-adv-x="953" 
d="M637 700h146l-465 -701l-157 2zM227 394q29 0 43 27.5t14 74.5q0 46 -14 73.5t-43 27.5t-42.5 -27.5t-13.5 -73.5q0 -47 13.5 -74.5t42.5 -27.5zM227 282q-50 0 -87 18t-61 48t-35.5 68.5t-11.5 79.5t11.5 79.5t35.5 68.5t61 48t87 18q51 0 88 -18t61 -48t36 -68.5
t12 -79.5t-12 -79.5t-36 -68.5t-61 -48t-88 -18zM722 102q30 0 43 27.5t13 72.5q0 47 -13 74.5t-43 27.5q-29 0 -42.5 -27.5t-13.5 -74.5q0 -45 13.5 -72.5t42.5 -27.5zM722 -11q-50 0 -87 18t-61 47.5t-35.5 68t-11.5 79.5t11.5 80t35.5 69t61 48.5t87 18.5q51 0 88 -18.5
t61 -48.5t35.5 -69t11.5 -80t-11.5 -79.5t-35.5 -68t-61 -47.5t-88 -18z" />
    <glyph glyph-name="ampersand" unicode="&#x26;" horiz-adv-x="651" 
d="M467 54q-77 -62 -183 -62q-54 0 -95.5 12.5t-73.5 39.5q-64 54 -64 146q0 34 9 61t26 50t40 43t52 40q-21 27 -35 47.5t-22 35.5q-20 38 -20 77q0 76 61 128q60 51 142 51q83 0 136 -46q53 -47 53 -122q0 -55 -30 -102q-27 -39 -84 -87l72 -84q7 21 12.5 49.5t8.5 62.5
l121 -81q-5 -35 -15.5 -74t-27.5 -70l64 -77q0 -1 -14 -17t-31 -36q-19 -23 -44 -53zM264 290q-52 -39 -52 -85q0 -35 22.5 -55.5t56.5 -20.5q47 0 81 34zM344 547q0 26 -13 37t-34 12t-35 -12t-14 -36q0 -5 1.5 -12t6.5 -16.5t14 -23t25 -32.5q17 19 33 42.5t16 40.5z" />
    <glyph glyph-name="quotesingle" unicode="'" horiz-adv-x="224" 
d="M39 711h146v-291h-146v291z" />
    <glyph glyph-name="parenleft" unicode="(" horiz-adv-x="357" 
d="M157 -160q-23 38 -44 85t-37 104t-25.5 125.5t-9.5 148.5q0 81 9.5 149t25.5 125t37 103.5t44 84.5h161q-15 -25 -35 -68t-38 -101.5t-31 -132t-13 -160.5t13 -161t31 -132.5t38 -101.5t35 -68h-161z" />
    <glyph glyph-name="parenright" unicode=")" horiz-adv-x="357" 
d="M32 -160q14 25 34 68t38.5 101.5t31.5 132.5t13 161t-13 160.5t-31.5 132t-38.5 101.5t-34 68h160q24 -38 45 -84.5t37 -103.5t25.5 -125t9.5 -149q0 -80 -9.5 -148.5t-25.5 -125.5t-37 -104t-45 -85h-160z" />
    <glyph glyph-name="asterisk" unicode="*" horiz-adv-x="491" 
d="M187 583q7 35 13 63q5 24 9 44t3 20h81l20 -127l127 18l25 -83l-109 -64l57 -114l-71 -51q-25 24 -45 43l-46 44q-7 -7 -15 -14q-7 -6 -15 -14t-17 -16q-21 -19 -47 -43l-64 51q0 -1 7 17t16 40q10 26 23 57l-111 64l27 83z" />
    <glyph glyph-name="plus" unicode="+" horiz-adv-x="591" 
d="M225 281h-151v138h151v169h138v-169h150v-138h-150v-170h-138v170z" />
    <glyph glyph-name="comma" unicode="," horiz-adv-x="283" 
d="M90 160h155l-96 -217h-117z" />
    <glyph glyph-name="hyphen" unicode="-" horiz-adv-x="361" 
d="M315 344v-140h-267v140h267z" />
    <glyph glyph-name="period" unicode="." horiz-adv-x="278" 
d="M60 0v163h163v-163h-163z" />
    <glyph glyph-name="slash" unicode="/" horiz-adv-x="409" 
d="M240 710h160l-241 -710h-158z" />
    <glyph glyph-name="zero" unicode="0" horiz-adv-x="631" 
d="M312 -7q-74 0 -126 26.5t-84.5 74t-47.5 113t-15 143.5t15 143t47.5 111t84.5 71.5t126 25.5t126 -25.5t85 -71.5t48 -111t15 -143t-15 -143.5t-48 -113t-85 -74t-126 -26.5zM312 132q51 0 77.5 53.5t26.5 164.5t-26.5 159.5t-76.5 48.5q-51 0 -77.5 -48.5t-26.5 -159.5
q0 -218 103 -218z" />
    <glyph glyph-name="one" unicode="1" horiz-adv-x="500" 
d="M197 138v351l-109 -42l-63 124l300 130h34v-563h99v-138h-361v138h100z" />
    <glyph glyph-name="two" unicode="2" horiz-adv-x="542" 
d="M24 34q58 82 101.5 143t74.5 106t50.5 76t31 52.5t16 36t4.5 27.5q0 39 -27.5 60t-77.5 21q-34 0 -61 -8t-48 -19l-44 133q41 17 82 27.5t96 10.5q51 0 96 -14t78.5 -41t52.5 -66t19 -90q0 -38 -8.5 -70t-24.5 -63.5t-39.5 -65.5t-53.5 -75l-56 -74h199l-17 -141h-433z
" />
    <glyph glyph-name="three" unicode="3" horiz-adv-x="557" 
d="M142 342l121 215h-203v138h419l17 -26l-150 -241q37 -3 66 -19t49.5 -40.5t31 -55.5t10.5 -63q0 -64 -22 -113t-60.5 -82t-91.5 -49.5t-115 -16.5q-28 0 -51 1.5t-45 5.5t-46 10.5t-54 15.5l40 134q41 -13 76 -20.5t74 -7.5q28 0 53.5 6.5t44.5 20.5t30 35t11 51
q0 34 -20 52t-49.5 24.5t-61.5 5t-56 -7.5z" />
    <glyph glyph-name="four" unicode="4" horiz-adv-x="623" 
d="M35 160l274 547l140 -53l-191 -382h108v153h155v-153h69v-138h-69v-135h-155v135h-316z" />
    <glyph glyph-name="five" unicode="5" horiz-adv-x="575" 
d="M125 696h363v-138h-219l-9 -112l49 3q100 0 157 -54t57 -157q0 -124 -78.5 -186t-218.5 -62q-25 0 -73.5 7t-101.5 24l38 136q38 -12 71 -19t64 -7q39 0 66 8t43.5 21.5t23.5 31t7 37.5q0 44 -28.5 68t-94.5 24q-27 0 -54 -5.5t-57 -19.5q-5 2 -9 4t-7 3q-4 1 -6 1z" />
    <glyph glyph-name="six" unicode="6" 
d="M455 568q-91 -6 -147 -45.5t-80 -99.5q20 16 47.5 27t68.5 11q43 0 82.5 -14t69.5 -42.5t47.5 -72t17.5 -102.5q0 -60 -21.5 -105t-57 -75.5t-81 -45.5t-94.5 -15q-125 0 -191 71t-66 218q0 89 24.5 164.5t74 131t125 89.5t177.5 40zM304 121q40 0 66.5 26t26.5 80
q0 58 -25.5 81.5t-63.5 23.5q-43 0 -68 -24t-25 -76q0 -55 24 -83t65 -28z" />
    <glyph glyph-name="seven" unicode="7" horiz-adv-x="531" 
d="M310 557h-292v139h485l2 -3q2 -2 4.5 -7t7.5 -13l-286 -694l-140 61z" />
    <glyph glyph-name="eight" unicode="8" horiz-adv-x="583" 
d="M40 188q0 33 8.5 60.5t23 50t32.5 39.5t38 29q-32 26 -51.5 64.5t-19.5 83.5q0 42 17 76.5t47 59t71 37.5t88 13t88 -13t71 -37.5t47 -59t17 -76.5q0 -45 -21.5 -82.5t-56.5 -65.5q21 -12 40.5 -28.5t34.5 -38t24 -49.5t9 -63q0 -55 -21.5 -93t-57 -61.5t-81 -34
t-93.5 -10.5t-93.5 10.5t-81.5 34t-57.5 61.5t-21.5 93zM389 200q0 40 -27 63.5t-69 37.5q-42 -14 -68.5 -37.5t-26.5 -63.5t25.5 -60t70.5 -20q95 0 95 80zM218 509q0 -35 21 -56.5t55 -33.5q32 12 54.5 34t22.5 56q0 29 -19.5 47.5t-57.5 18.5t-57 -18.5t-19 -47.5z" />
    <glyph glyph-name="nine" unicode="9" horiz-adv-x="591" 
d="M145 129q88 4 144.5 44.5t80.5 100.5q-20 -15 -48 -25t-66 -10q-43 0 -81.5 12.5t-68 39.5t-46.5 69t-17 101q0 60 21 105t55.5 75t80 44.5t93.5 14.5q126 0 190.5 -67t64.5 -213q0 -89 -24 -165t-73 -132.5t-124.5 -90.5t-177.5 -39zM292 368q43 0 68 20.5t25 71.5
q0 55 -24 81.5t-65 26.5q-40 0 -66.5 -24t-26.5 -79q0 -28 6.5 -46.5t18.5 -30t28.5 -16t35.5 -4.5z" />
    <glyph glyph-name="colon" unicode=":" horiz-adv-x="284" 
d="M60 0v163h163v-163h-163zM60 345v163h163v-163h-163z" />
    <glyph glyph-name="semicolon" unicode=";" horiz-adv-x="295" 
d="M79 345v163h163v-163h-163zM90 160h155l-96 -217h-117z" />
    <glyph glyph-name="less" unicode="&#x3c;" 
d="M505 579q0 -15 0.5 -49t0.5 -97l-268 -96l268 -92v-18.5t-0.5 -27.5t-0.5 -43v-64l-418 165v158z" />
    <glyph glyph-name="equal" unicode="=" horiz-adv-x="591" 
d="M507 315v-138h-425v138h425zM507 512v-138h-425v138h425z" />
    <glyph glyph-name="greater" unicode="&#x3e;" 
d="M351 335q-65 22 -135.5 45.5t-133.5 45.5v18t0.5 28t0.5 43v64l419 -165v-158l-419 -164q0 15 -0.5 49.5t-0.5 97.5z" />
    <glyph glyph-name="question" unicode="?" horiz-adv-x="499" 
d="M162 402q22 4 46.5 11.5t44 18.5t32.5 27.5t13 39.5q0 35 -26.5 53.5t-70.5 18.5q-38 0 -65.5 -6.5t-62.5 -18.5l-39 128q29 9 53 16t45.5 11t42 6t42.5 2q121 0 182 -55t61 -152q0 -44 -16 -76.5t-39 -56t-49 -38.5t-47 -24v-91h-147v186zM162 0v160h151v-160h-151z" />
    <glyph glyph-name="at" unicode="@" horiz-adv-x="997" 
d="M653 169q5 -1 9.5 -1.5t9.5 -0.5q33 0 59 20t43 52t26 70.5t9 76.5q0 106 -64.5 160.5t-180.5 54.5q-91 0 -162.5 -31t-120.5 -83.5t-75 -120.5t-26 -142q0 -66 20 -113t54 -76.5t79.5 -43.5t96.5 -14q45 0 84.5 3.5t73.5 11.5q1 0 1.5 -16.5t0.5 -36v-36v-16.5
q-8 -3 -24.5 -8.5t-40 -10.5t-51.5 -8.5t-59 -3.5q-76 0 -144 22t-119 67t-81 113.5t-30 161.5q0 87 31.5 176t97.5 161.5t167 118t240 45.5q75 0 142 -20.5t117 -62t79 -104.5t28 -148q-1 -70 -22 -129.5t-58.5 -104.5t-89 -72t-112.5 -32q-31 1 -59 9.5t-48 24.5
q-29 -14 -60.5 -24t-79.5 -10q-32 0 -61 10t-51 31t-34.5 53t-12.5 76q0 67 22.5 123.5t61 97t90 63.5t109.5 23q43 0 86.5 -7t90.5 -24zM552 398q-7 2 -12.5 2h-13.5q-29 0 -51.5 -13.5t-38 -35.5t-24 -51t-8.5 -60q0 -38 15.5 -54t41.5 -16q16 0 29.5 4t24.5 9z" />
    <glyph glyph-name="A" unicode="A" horiz-adv-x="659" 
d="M205 590h-71l65 124h220l224 -714h-172l-40 143l-39 -3h-139l-34 3l-41 -143h-161zM392 279l-66 238l-70 -238h136z" />
    <glyph glyph-name="B" unicode="B" horiz-adv-x="603" 
d="M61 712q40 7 84 9.5t103 2.5q56 0 104.5 -9t84.5 -31t56.5 -59t20.5 -93q0 -46 -18.5 -85t-46.5 -62q21 -9 41 -23.5t35.5 -36.5t25.5 -51.5t10 -66.5q0 -66 -24 -108.5t-65.5 -66.5t-95.5 -33.5t-114 -9.5q-42 0 -91.5 2.5t-109.5 9.5v711zM225 128q14 -2 28.5 -2.5
t25.5 -0.5q18 0 39 3.5t38 13.5t28.5 27.5t11.5 46.5q0 27 -9 44t-25 26.5t-38.5 13.5t-50.5 4h-48v-176zM257 432q45 -2 74 16t29 69q0 25 -9 40.5t-23.5 24.5t-32 12t-34.5 3h-18t-18 -2v-162z" />
    <glyph glyph-name="C" unicode="C" horiz-adv-x="577" 
d="M544 17q-42 -17 -80.5 -22.5t-85.5 -5.5q-85 0 -149 27t-106.5 75.5t-64 115.5t-21.5 147t22 148t64.5 117t105.5 76.5t144 27.5q47 0 85 -9t74 -25l-41 -133q-20 9 -44.5 16t-58.5 7q-178 0 -178 -225q0 -113 46 -167t142 -54q32 0 56.5 4.5t48.5 13.5z" />
    <glyph glyph-name="D" unicode="D" horiz-adv-x="703" 
d="M68 709q47 6 94 9.5t101 3.5q188 0 286 -91.5t98 -280.5q0 -188 -100 -274.5t-296 -86.5q-48 0 -92 3t-91 9v708zM232 135q49 -5 93 0t77.5 28t53 68.5t19.5 121.5q0 67 -15.5 110t-42 68.5t-61 35.5t-72.5 10h-24.5t-27.5 -2v-440z" />
    <glyph glyph-name="E" unicode="E" horiz-adv-x="529" 
d="M65 715h421q-10 -38 -20 -72t-20 -70h-220q0 -4 1 -11.5t1 -11.5v-105h202v-143h-202v-137l-2 -23h264v-142h-425v715z" />
    <glyph glyph-name="F" unicode="F" horiz-adv-x="509" 
d="M65 714h421q-11 -40 -21 -71q-8 -26 -15 -48t-8 -22h-216l2 -22v-123h202v-143h-202v-285h-163v714z" />
    <glyph glyph-name="G" unicode="G" horiz-adv-x="637" 
d="M434 256h-105l66 128h194v-362q-58 -20 -111.5 -26.5t-93.5 -6.5q-88 0 -153 27t-108 75t-64 115t-21 147t22 148t64.5 117.5t105.5 77t144 27.5q47 0 90.5 -7t97.5 -29l-68 -125q-19 8 -46 12.5t-58 4.5q-89 0 -134.5 -56t-45.5 -170t45 -167t136 -53q24 0 43 4v119z
" />
    <glyph glyph-name="H" unicode="H" horiz-adv-x="674" 
d="M67 715h164v-270h213v270h164v-715h-164v305q-6 -1 -11 -2l-12 -2h-168l-22 4v-305h-164v715z" />
    <glyph glyph-name="I" unicode="I" horiz-adv-x="290" 
d="M63 715h163v-715h-163v715z" />
    <glyph glyph-name="J" unicode="J" horiz-adv-x="406" 
d="M187 572q-39 0 -84.5 0.5t-78.5 0.5l75 141h251v-517q0 -57 -17.5 -96.5t-48.5 -64t-73.5 -36t-92.5 -11.5q-17 0 -43.5 2.5t-56.5 10.5q2 13 4 32t4.5 38.5t4 38.5t3.5 32q25 -5 41 -7t27 -2q12 0 27 1.5t28 9t21.5 24.5t8.5 47v356z" />
    <glyph glyph-name="K" unicode="K" horiz-adv-x="627" 
d="M236 363l188 351h181l-189 -344l212 -370h-182zM71 590h-76l65 125h173v-716h-162v591z" />
    <glyph glyph-name="L" unicode="L" horiz-adv-x="534" 
d="M65 715h159v-571h115l25 -3v68l135 63v-272h-434v715z" />
    <glyph glyph-name="M" unicode="M" horiz-adv-x="832" 
d="M94 714h171l152 -372l11.5 27.5t28.5 68.5t36.5 89.5t36.5 90t28 69l11 27.5h160l35 -714h-165l-7 417l-117 -272h-121l-121 272l-11 -417h-155z" />
    <glyph glyph-name="N" unicode="N" horiz-adv-x="714" 
d="M95 590h-95l65 125h164l237 -392l6 -17v409h156v-715h-133l-240 395l-5 15v-410h-155v590z" />
    <glyph glyph-name="O" unicode="O" horiz-adv-x="685" 
d="M342 -11q-82 0 -139.5 28t-94 77t-53.5 116.5t-17 147.5t17 147.5t53.5 116t94 75.5t139.5 27t139.5 -27t94 -75.5t53 -116t16.5 -147.5t-16.5 -147.5t-53 -116.5t-94 -77t-139.5 -28zM342 129q69 0 99.5 57t30.5 172t-29.5 169t-99.5 54q-71 0 -101.5 -54t-30.5 -169
t30.5 -172t100.5 -57z" />
    <glyph glyph-name="P" unicode="P" horiz-adv-x="587" 
d="M66 713q96 9 194 9q51 0 102.5 -10t93 -38t68 -78t26.5 -129t-26.5 -128.5t-68 -77.5t-92.5 -38t-101 -10q-7 0 -16 0.5t-17 1.5v-215h-163v713zM229 376l-4 -22q31 -4 59.5 0.5t50 18t34.5 36.5t13 56t-10 55.5t-26.5 36t-37.5 19.5t-44 6h-14t-21 -2v-204z" />
    <glyph glyph-name="Q" unicode="Q" horiz-adv-x="701" 
d="M343 -11q-82 0 -139.5 27t-94 76t-53.5 115.5t-17 146.5t17 148t53.5 117t94 76.5t139.5 27.5q81 0 139 -27.5t94.5 -76.5t53.5 -117t17 -148q0 -71 -13 -132.5t-40 -103.5l-14 -3l114 -98q-17 -8 -49.5 -24t-83.5 -42l-76 65q-29 -12 -66.5 -19.5t-75.5 -7.5zM343 129
q69 0 100 55t31 170t-29.5 170t-100.5 55t-101.5 -55t-30.5 -170t30.5 -170t100.5 -55z" />
    <glyph glyph-name="R" unicode="R" horiz-adv-x="611" 
d="M67 709q48 6 88 9.5t85 3.5q55 0 109.5 -10.5t97.5 -36.5t69.5 -70t26.5 -112q0 -39 -10.5 -70t-26 -54.5t-34.5 -41t-37 -29.5l-5 -3l13.5 -22t33 -55t42.5 -71t42.5 -70.5t32 -54.5t12.5 -21h-183l-189 329v-330h-167v709zM234 336l35 16q13 6 31 15t35 23.5t29 34.5
t12 49q0 31 -9 51.5t-25 33t-37.5 18t-46.5 5.5h-11.5t-12.5 -1v-245z" />
    <glyph glyph-name="S" unicode="S" horiz-adv-x="553" 
d="M197 319q-32 13 -59.5 29t-47.5 38.5t-31 53t-11 72.5q0 52 18 91.5t50.5 66.5t78.5 41t102 14q46 0 94 -9.5t115 -32.5l-68 -122q-65 31 -137 31q-14 0 -29 -3t-27 -10.5t-20 -20.5t-8 -34q0 -17 6.5 -28t16.5 -19t23 -13.5t26 -10.5l59 -23q38 -15 69.5 -31.5t53.5 -40
t34 -57.5t12 -85t-18.5 -93t-54 -71.5t-87.5 -46t-119 -16.5q-31 0 -57 2t-50.5 7t-49 12t-52.5 18l34 140q41 -11 80.5 -19.5t80.5 -8.5q55 0 84 14.5t34 55.5q2 21 -5 35t-20 23.5t-29 15.5l-32 12z" />
    <glyph glyph-name="T" unicode="T" horiz-adv-x="548" 
d="M189 573h-171v142h515l-23 -70l-23 -72h-134l3 -28v-545h-167v573z" />
    <glyph glyph-name="U" unicode="U" horiz-adv-x="664" 
d="M57 715h164v-382q0 -56 5 -94.5t17 -62t33 -33.5t53 -10q33 0 54 10t33 33t17 61.5t5 95.5v382h164v-412q0 -74 -12.5 -132t-43.5 -98.5t-83.5 -62t-133.5 -21.5q-80 0 -132.5 21.5t-83.5 62t-43.5 98.5t-12.5 132v412z" />
    <glyph glyph-name="V" unicode="V" horiz-adv-x="632" 
d="M-2 715h175l139 -490l6 -28l2 14q0 5 2 9q1 2 1 4l141 491h169l-231 -715h-175z" />
    <glyph glyph-name="W" unicode="W" horiz-adv-x="907" 
d="M8 714h174l90 -446l111 446h150l110 -456l97 456h159l-7 -30.5t-19 -81t-27.5 -114.5t-31.5 -131t-31.5 -131.5t-28 -114.5t-20 -80.5l-7.5 -30.5h-170l-105 431l-112 -431h-160z" />
    <glyph glyph-name="X" unicode="X" horiz-adv-x="619" 
d="M0 0l221 379q-24 39 -50 81.5t-53 86t-53 86t-49 81.5h183l108 -176l105 176h183l-201 -338l219 -376h-172l-129 223l-9.5 -17t-23.5 -42t-30.5 -53.5t-30.5 -53.5t-23.5 -41l-9.5 -16h-185z" />
    <glyph glyph-name="Y" unicode="Y" horiz-adv-x="612" 
d="M224 258l-9.5 19t-25.5 51.5t-36 73.5t-41 84q-49 100 -112 229h180l129 -294q36 82 64 147q12 27 23.5 53.5t20.5 47.5t14.5 33.5l5.5 12.5h175l-224 -458v-258h-164v259z" />
    <glyph glyph-name="Z" unicode="Z" horiz-adv-x="559" 
d="M236 142h284v-142h-472v120l281 453h-156v-87l-127 69v160h472v-119z" />
    <glyph glyph-name="bracketleft" unicode="[" horiz-adv-x="344" 
d="M40 765h250v-131h-95v-664h95v-131h-250v926z" />
    <glyph glyph-name="backslash" unicode="\" horiz-adv-x="403" 
d="M3 702h160l240 -702h-159z" />
    <glyph glyph-name="bracketright" unicode="]" horiz-adv-x="344" 
d="M142 -30v664h-96v131h250v-926h-250v131h96z" />
    <glyph glyph-name="asciicircum" unicode="^" horiz-adv-x="537" 
d="M198 702h144q12 -29 26 -60.5t32.5 -72.5t42.5 -95t57 -127h-74q-28 0 -50.5 -0.5t-22.5 0.5l-87 201l-81 -201l-23.5 -0.5t-51.5 -0.5h-51h-23z" />
    <glyph glyph-name="underscore" unicode="_" horiz-adv-x="492" 
d="M492 21v-117h-491v117h491z" />
    <glyph glyph-name="grave" unicode="`" horiz-adv-x="373" 
d="M19 701h206l121 -130h-158z" />
    <glyph glyph-name="a" unicode="a" horiz-adv-x="493" 
d="M308 229q-10 2 -21 2.5t-19 0.5q-42 0 -68 -13t-26 -45q0 -20 9.5 -31.5t23.5 -17t29.5 -6.5t26.5 -1q20 0 45 5v106zM256 339q8 0 21.5 -0.5t30.5 -1.5q-1 39 -27.5 50.5t-68.5 11.5q-23 0 -53 -5.5t-65 -16.5l-16 55q-3 11 -8.5 32t-7.5 33q50 17 94.5 24.5t80.5 7.5
q106 0 164 -50.5t58 -161.5v-293q-39 -11 -90 -21.5t-110 -10.5q-52 0 -94.5 9t-73 30t-47 55t-16.5 83t20.5 82t53 52.5t73 27.5t81.5 8z" />
    <glyph glyph-name="b" unicode="b" horiz-adv-x="571" 
d="M225 702v-173l-5 -21q0 1 20 6.5t55 5.5q52 0 96 -15.5t75.5 -47.5t49 -81.5t17.5 -118.5q0 -54 -12.5 -101.5t-41.5 -83.5t-76 -57t-116 -21h-26.5t-47 2t-61.5 6t-70 12v565h-83l64 122zM273 128q24 0 45.5 6t37 21t25 40t9.5 62t-9 63.5t-24 43t-35.5 24t-43.5 7.5
q-12 0 -28 -2t-25 -4v-257q11 -2 22.5 -3t25.5 -1z" />
    <glyph glyph-name="c" unicode="c" horiz-adv-x="471" 
d="M466 56q-40 -32 -86 -47.5t-94 -15.5q-52 0 -98 14t-80.5 45.5t-54.5 82t-20 122.5q0 71 20 121.5t54.5 83t80.5 48t98 15.5q32 0 70 -9t76 -27l-66 -108q-17 8 -40 11.5t-40 3.5q-46 0 -76.5 -32.5t-30.5 -106.5q0 -38 8 -62t22.5 -39t34 -22t42.5 -9q31 -3 61.5 5
t54.5 26z" />
    <glyph glyph-name="d" unicode="d" horiz-adv-x="547" 
d="M489 701v-687q-36 -8 -70 -12t-62 -6t-48 -2h-27q-68 0 -114.5 21t-75 57t-41.5 83.5t-13 101.5q0 69 17.5 118.5t49 81.5t75 47.5t96.5 15.5q9 0 20.5 -1.5t22 -3.5t19.5 -4.5t14 -5.5v59l3 13h-90l67 124h157zM298 128q15 0 29 1t25 3v256q-7 1 -16 3q-8 2 -18.5 3
t-23.5 1q-47 0 -79 -32t-32 -106q0 -37 9 -62t24.5 -40t36.5 -21t45 -6z" />
    <glyph glyph-name="e" unicode="e" horiz-adv-x="526" 
d="M265 528q52 0 93.5 -14.5t69.5 -47t43 -83.5t15 -123v-15.5t-2 -31.5h-280l-21 3q1 -29 6.5 -46.5t16 -27.5t25.5 -14t34 -5q31 -2 53.5 9t42.5 45q31 -10 57 -19q22 -8 40 -14t18 -5q-36 -75 -87.5 -109.5t-123.5 -34.5q-53 0 -96 14t-73 45.5t-46.5 82t-16.5 123.5
q0 71 16.5 121.5t46.5 83t73 48t96 15.5zM320 328l15 -2q-2 35 -18.5 54.5t-51.5 19.5q-40 0 -57.5 -19.5t-21.5 -54.5q5 1 9 1.5t9 0.5h116z" />
    <glyph glyph-name="f" unicode="f" horiz-adv-x="396" 
d="M96 397h-78v126h78v17q2 37 15 71t39 57q54 54 148 54q27 0 50.5 -3.5t57.5 -14.5l-10 -17t-22 -37t-22 -37l-10 -17h-25q-32 0 -51 -13t-19 -43v-17h130l-68 -126h-66l4 -28v-369h-151v397z" />
    <glyph glyph-name="g" unicode="g" horiz-adv-x="564" 
d="M507 447l-33 -42q7 -14 10 -30.5t3 -32.5q0 -36 -11.5 -71t-38 -63.5t-68.5 -46t-103 -18.5q-4 -3 -10 -8.5t-6 -12.5q0 -8 11.5 -12t22.5 -5q17 -2 35.5 -3.5t35.5 -3.5q39 -4 69 -17.5t50 -34.5t30.5 -48t10.5 -58q0 -54 -20.5 -89.5t-53.5 -56t-75.5 -28t-87.5 -4.5
q-36 2 -71.5 12t-67.5 25t-59 35t-46 42l68 91q30 -22 55 -36t47 -22t40 -11.5t34 -5.5q15 -1 30.5 0t28.5 6.5t21 15t8 26.5q0 24 -17.5 34.5t-57.5 13.5q-15 1 -30.5 2.5t-30.5 2.5q-59 5 -91.5 32.5t-32.5 69.5q0 23 9 41.5t26 38.5q-48 29 -71.5 73.5t-23.5 92.5
q0 39 15 73.5t43.5 60t70 40t94.5 14.5q30 0 62 -7.5t55 -19.5q0 -1 18.5 6t41.5 15q26 10 61 21v-97zM270 420q-29 0 -48 -20.5t-19 -58.5q0 -42 19 -58t47 -16q33 0 49.5 22t16.5 54q0 36 -16.5 56.5t-48.5 20.5z" />
    <glyph glyph-name="h" unicode="h" horiz-adv-x="572" 
d="M64 580q0 -1 -13.5 -1h-29.5h-42l68 122h168v-226q21 20 52 35.5t74 15.5q89 0 132.5 -49.5t43.5 -157.5v-319h-152v299q0 39 -18 62t-55 23q-32 0 -54.5 -17.5t-22.5 -66.5v-300h-153z" />
    <glyph glyph-name="i" unicode="i" horiz-adv-x="270" 
d="M215 522v-522h-151v361l5 36h-86l68 125h164zM211 565h-150v136h150v-136z" />
    <glyph glyph-name="j" unicode="j" horiz-adv-x="287" 
d="M77 391h-66l-12 29l53 103h176v-526q0 -49 -7.5 -85.5t-25.5 -61t-48.5 -36.5t-76.5 -12q-22 0 -53.5 7.5t-61.5 16.5l24 128q19 -5 35.5 -8t25.5 -5q14 -2 21.5 1.5t11 13.5t4 26.5t0.5 41.5v367zM224 565h-147v136h147v-136z" />
    <glyph glyph-name="k" unicode="k" horiz-adv-x="531" 
d="M54 578h-74l64 123h161v-701h-151v578zM204 270l129 252h171l-134 -245q18 -32 37.5 -67.5t39.5 -71.5t39.5 -71.5t37.5 -66.5h-170z" />
    <glyph glyph-name="l" unicode="l" horiz-adv-x="334" 
d="M63 723h151v-515q0 -26 3 -42t9.5 -25t16.5 -12t24 -3q7 0 16 0.5t30 4.5l9 -125q-26 -8 -48.5 -10t-40.5 -2q-80 0 -125 43.5t-45 141.5v544z" />
    <glyph glyph-name="m" unicode="m" horiz-adv-x="890" 
d="M77 398h-83l66 124h145l12 -56q23 26 56.5 42.5t77.5 16.5q103 0 147 -75q25 35 59 55t85 20q90 0 131.5 -47.5t41.5 -151.5v-326h-152v299q0 48 -15.5 68t-53.5 20q-16 0 -29.5 -3.5t-23 -13t-15 -26t-5.5 -43.5v-301h-152v301q0 50 -17.5 68t-48.5 18q-15 0 -28 -3
t-23.5 -12t-16.5 -26t-6 -45v-301h-152v398z" />
    <glyph glyph-name="n" unicode="n" horiz-adv-x="597" 
d="M73 398h-84l66 124h145l13 -56q25 27 59.5 45t79.5 18q91 0 135 -48.5t44 -153.5v-327h-152v301q0 46 -22.5 66t-57.5 20q-29 0 -52 -19.5t-23 -64.5v-303h-151v398z" />
    <glyph glyph-name="o" unicode="o" horiz-adv-x="564" 
d="M278 528q52 0 97 -14.5t77.5 -46.5t51 -83t18.5 -123t-18.5 -123t-51 -83t-77.5 -46.5t-97 -14.5q-53 0 -97.5 14.5t-77 46.5t-51 83t-18.5 123q0 71 18.5 121.5t51 83t77 47.5t97.5 15zM278 125q45 0 70.5 30t25.5 106t-25.5 106.5t-70.5 30.5q-44 0 -70.5 -31.5
t-26.5 -105.5q0 -76 26 -106t71 -30z" />
    <glyph glyph-name="p" unicode="p" horiz-adv-x="601" 
d="M94 399h-100l66 123h158l13 -58q23 27 56.5 44.5t78.5 17.5q44 0 82 -15.5t66 -47.5t44 -80.5t16 -115.5q0 -130 -73 -201.5t-206 -71.5q-25 0 -50 3v-231h-151v633zM245 130q25 -5 51 -5q56 0 89 33t33 105q0 55 -23 91t-70 36q-43 0 -61.5 -30.5t-18.5 -74.5v-155z" />
    <glyph glyph-name="q" unicode="q" horiz-adv-x="594" 
d="M365 -1q-17 -2 -34.5 -3t-34.5 -1q-51 0 -97.5 15t-82 47t-56.5 82.5t-21 122.5q0 57 18 106.5t54 85.5t89.5 55.5t124.5 16.5q51 -3 97.5 -8t93.5 -16v-728h-150zM310 128q12 0 26 0.5t29 2.5v258q-16 2 -25.5 2.5t-20.5 0.5q-122 0 -122 -130q0 -73 32 -103.5t81 -30.5
z" />
    <glyph glyph-name="r" unicode="r" horiz-adv-x="408" 
d="M243 504q12 8 33.5 15.5t48.5 7.5q23 0 37.5 -2t14.5 -1v-133q-23 2 -45 1q-19 -2 -39.5 -6.5t-37.5 -16.5q-20 -14 -28.5 -38t-8.5 -66v-266h-150v397h-81l64 127h167v-39q5 4 9 8q4 3 8 6.5t8 5.5z" />
    <glyph glyph-name="s" unicode="s" horiz-adv-x="458" 
d="M165 216q-54 16 -89 49t-35 95q0 78 55 122t152 44q37 0 76.5 -8t98.5 -29l-60 -108q-31 11 -53.5 16.5t-51.5 5.5q-27 0 -42.5 -7.5t-15.5 -24.5q0 -14 11.5 -20t30.5 -13l54 -16q27 -8 50.5 -19t40 -27.5t26 -41.5t9.5 -61q0 -38 -15.5 -70.5t-45 -56.5t-72 -37.5
t-96.5 -13.5q-21 0 -40.5 1.5t-38.5 5t-40 9.5t-45 14q2 7 4 16t6 22.5t9 32.5t13 47q42 -11 70.5 -16t57.5 -5q12 0 25.5 2t25.5 7t20 13t8 21q0 15 -10.5 21t-31.5 13z" />
    <glyph glyph-name="t" unicode="t" horiz-adv-x="379" 
d="M79 397h-62v126h62v142h150v-142h124l-70 -126h-59l5 -32v-157q0 -26 3.5 -42t11 -25t19 -12.5t26.5 -3.5q11 0 27 2.5t34 5.5l8 -67l6 -60q-29 -6 -53 -9t-49 -3q-93 0 -138 43t-45 142v218z" />
    <glyph glyph-name="u" unicode="u" horiz-adv-x="546" 
d="M48 522h152v-272q0 -35 6 -58.5t18 -37t29.5 -19t41.5 -5.5q29 0 52 3l-2 18v371h152v-494q-37 -13 -88.5 -23t-105.5 -10q-51 0 -97.5 8t-81.5 34t-55.5 75.5t-20.5 133.5v276z" />
    <glyph glyph-name="v" unicode="v" horiz-adv-x="547" 
d="M2 523h174l98 -331l2 -12l2 12l96 331h172l-196 -524h-156z" />
    <glyph glyph-name="w" unicode="w" horiz-adv-x="761" 
d="M600 522h160l-151 -522h-159l-69 284l-0.5 -1.5t-2 -9.5t-5.5 -25t-11.5 -48.5t-19 -80t-28.5 -119.5h-160l-6.5 22t-17 59t-24 84t-27.5 96q-33 115 -75 261h161l65 -262l6 -31l6 31l61 262h156l63 -263l7 -30l2 16q1 7 3 15z" />
    <glyph glyph-name="x" unicode="x" horiz-adv-x="507" 
d="M-9 0l162 269q-11 18 -23 39q-11 18 -24 41t-27 47q-33 55 -75 127h170l80 -131l76 131l177 -1l-155 -253l160 -269h-165l-93 162l-102 -162h-161z" />
    <glyph glyph-name="y" unicode="y" horiz-adv-x="529" 
d="M0 522h168l95 -390l109 390h157l-115 -383q-19 -63 -37.5 -125.5t-36.5 -122.5q-12 -38 -28.5 -63t-38 -40t-47.5 -21t-57 -6q-25 0 -54.5 5.5t-67.5 17.5l58 108l24.5 -3.5t16.5 -1.5q10 0 20 1.5t19.5 7.5t18 19.5t15.5 37.5l7 30l14 17h-88z" />
    <glyph glyph-name="z" unicode="z" horiz-adv-x="490" 
d="M227 131h229v-131h-423v113l16.5 18.5t42 47t56.5 63t60 66.5t52 58t34 37l-16 -5h-116v-55l-125 38v141h413v-118z" />
    <glyph glyph-name="braceleft" unicode="{" horiz-adv-x="437" 
d="M131 146q-1 27 -5.5 48t-14.5 38.5t-27 31.5t-42 26v40q26 12 43 26t27 31t14 38t5 49l3 87q1 51 11 91t33 68t62 42.5t98 14.5l42 -2v-126h-27q-23 0 -36.5 -6.5t-20.5 -20t-9 -35t-2 -51.5q0 -50 -4 -86.5t-12.5 -63.5t-22 -45.5t-31.5 -30.5q19 -13 32.5 -30.5
t22 -43.5t12 -63.5t3.5 -89.5q0 -30 2 -51.5t9 -35t20.5 -20t36.5 -6.5h27v-128h-42q-59 0 -98 14.5t-62 42.5t-33 68t-11 91z" />
    <glyph glyph-name="bar" unicode="|" horiz-adv-x="341" 
d="M98 765h146v-926h-146v926z" />
    <glyph glyph-name="braceright" unicode="}" horiz-adv-x="437" 
d="M75 -30q23 0 36.5 6.5t20.5 20t9 35t2 51.5q0 52 3.5 89.5t11.5 63.5t21.5 43.5t33.5 30.5q-20 12 -33.5 30t-21.5 44t-11.5 63.5t-3.5 88.5q0 30 -2 51.5t-9 35t-20.5 20t-36.5 6.5h-27v128h42q60 0 99 -15t61.5 -42.5t32 -67.5t11.5 -91l3 -87q1 -27 5.5 -48
t14.5 -38.5t26.5 -31.5t42.5 -26v-40q-26 -12 -42.5 -26t-26.5 -31t-14.5 -38.5t-5.5 -48.5l-3 -88q-2 -51 -11.5 -91t-32 -67.5t-61.5 -42.5t-99 -15l-42 1v127h27z" />
    <glyph glyph-name="asciitilde" unicode="~" horiz-adv-x="463" 
d="M4 417q27 39 58.5 52.5t65 12.5t69 -10t70.5 -14.5t69.5 -1.5t65.5 30l61 -107q-27 -37 -58.5 -49.5t-65.5 -11.5t-69.5 9.5t-71 14t-69 1.5t-63.5 -28z" />
    <glyph glyph-name="cent" unicode="&#xa2;" 
d="M299 -7q-51 9 -89.5 32.5t-63.5 58t-37.5 79t-12.5 95.5q0 50 12.5 95t38 80.5t63.5 59.5t89 32v105h105v-104q21 -3 44 -9t54 -17q-2 -10 -7 -27t-7 -26q-4 -13 -8 -34t-7 -35q-35 11 -58.5 14.5t-49.5 3.5q-54 0 -81.5 -35.5t-27.5 -102.5q0 -72 30 -105t80 -33
q28 0 51 5t58 17l32 -125q-33 -12 -58 -18t-45 -8v-104h-105v106z" />
    <glyph glyph-name="sterling" unicode="&#xa3;" 
d="M89 38q20 18 34.5 43t23.5 51.5t13.5 50.5t4.5 41q0 11 -1 23.5t-3 28.5h-88v126h68q-2 23 -4 44t-2 43q0 41 14.5 81t44.5 71t75.5 50t108.5 19q53 0 93 -8t80 -23l-39 -134q-29 11 -59 20.5t-62 9.5q-27 0 -45 -9t-29 -23t-15.5 -31.5t-4.5 -33.5q0 -21 2.5 -40
t5.5 -36h151v-126h-133q1 -6 1.5 -11t0.5 -10q0 -29 -3.5 -54.5t-16.5 -57.5h242v-143h-458v38z" />
    <glyph glyph-name="section" unicode="&#xa7;" horiz-adv-x="572" 
d="M173 213q-61 21 -89 55.5t-28 74.5q0 58 56 120q-30 37 -30 85q0 79 59 120.5t164 41.5q42 0 81.5 -6.5t89.5 -22.5l-18 -52q-2 -7 -5.5 -17t-6.5 -20.5t-6 -19.5t-4 -14q-31 14 -62 21.5t-57 7.5q-45 0 -61.5 -9t-16.5 -23t11 -21.5t33 -14.5l109 -38q57 -19 81 -52.5
t24 -72.5q0 -35 -9.5 -63.5t-36.5 -59.5q29 -32 29 -82q0 -39 -18.5 -69t-51 -51t-77 -31.5t-95.5 -10.5q-45 0 -88 6.5t-90 23.5q5 13 11.5 33.5t9.5 33.5l17 54q32 -14 65.5 -21t61.5 -7q47 0 72.5 7.5t25.5 27.5q0 13 -12.5 20t-32.5 13zM341 291q8 8 15.5 20t7.5 26
q0 16 -11 27t-44 20l-90 24q-11 -10 -17 -20.5t-6 -24.5q0 -16 9.5 -25.5t35.5 -16.5z" />
    <glyph glyph-name="degree" unicode="&#xb0;" horiz-adv-x="377" 
d="M30 562q0 33 12 61.5t33 49.5t49 33t61 12q32 0 60.5 -12t49.5 -33t33.5 -49.5t12.5 -61.5t-12.5 -61t-33.5 -48.5t-49.5 -32.5t-60.5 -12q-33 0 -61 12t-49 32.5t-33 48.5t-12 61zM185 511q21 0 35.5 14t14.5 37t-14.5 38t-35.5 15t-35 -15t-14 -38t14 -37t35 -14z" />
    <glyph glyph-name="germandbls" unicode="&#xdf;" horiz-adv-x="604" 
d="M59 471q0 62 13.5 111t42 82.5t72.5 51.5t106 18q60 0 100.5 -17t65 -43.5t35 -59t10.5 -64.5q0 -46 -18 -78.5t-37 -56.5q-13 -17 -21.5 -31t-8.5 -28q0 -20 14 -30.5t34 -21.5q17 -10 35 -22t32.5 -30t23.5 -43.5t9 -62.5q0 -26 -9 -53.5t-31.5 -50.5t-59.5 -38
t-92 -15q-38 0 -67.5 4.5t-63.5 17.5q0 2 3 15.5t7.5 32t10 38.5t9.5 35q32 -10 51.5 -13t34.5 -3q23 0 36.5 11.5t13.5 31.5q0 19 -16 31t-37 23q-17 10 -33.5 20.5t-30 25.5t-22 35.5t-8.5 49.5q0 34 11.5 56t28.5 43l4 5q14 20 25.5 42t11.5 54q0 23 -12.5 40.5
t-46.5 17.5q-37 0 -54 -30.5t-17 -100.5v-471h-155v471z" />
    <glyph glyph-name="bullet" unicode="&#x2022;" horiz-adv-x="450" 
d="M66 363q0 31 12 59t33 49t49 33.5t60 12.5q31 0 59.5 -12.5t49.5 -33.5t33.5 -49t12.5 -59q0 -32 -12.5 -60t-33.5 -49t-49.5 -33.5t-59.5 -12.5q-32 0 -60 12.5t-49 33.5t-33 49t-12 60z" />
    <glyph glyph-name="odieresis" unicode="&#xf6;" horiz-adv-x="564" 
d="M278 528q52 0 97 -14.5t77.5 -46.5t51 -83t18.5 -123t-18.5 -123t-51 -83t-77.5 -46.5t-97 -14.5q-53 0 -97.5 14.5t-77 46.5t-51 83t-18.5 123q0 71 18.5 121.5t51 83t77 47.5t97.5 15zM278 125q45 0 70.5 30t25.5 106t-25.5 106.5t-70.5 30.5q-44 0 -70.5 -31.5
t-26.5 -105.5q0 -76 26 -106t71 -30zM103 568v135h146v-135h-146zM315 568v135h145v-135h-145z" />
    <glyph glyph-name="udieresis" unicode="&#xfc;" horiz-adv-x="546" 
d="M48 522h152v-272q0 -35 6 -58.5t18 -37t29.5 -19t41.5 -5.5q29 0 52 3l-2 18v371h152v-494q-37 -13 -88.5 -23t-105.5 -10q-51 0 -97.5 8t-81.5 34t-55.5 75.5t-20.5 133.5v276zM94 568v135h146v-135h-146zM306 568v135h145v-135h-145z" />
    <glyph glyph-name="Adieresis" unicode="&#xc4;" horiz-adv-x="659" 
d="M205 590h-71l65 124h220l224 -714h-172l-40 143l-39 -3h-139l-34 3l-41 -143h-161zM392 279l-66 238l-70 -238h136zM148 756v135h146v-135h-146zM360 756v135h145v-135h-145z" />
    <glyph glyph-name="Odieresis" unicode="&#xd6;" horiz-adv-x="685" 
d="M342 -11q-82 0 -139.5 28t-94 77t-53.5 116.5t-17 147.5t17 147.5t53.5 116t94 75.5t139.5 27t139.5 -27t94 -75.5t53 -116t16.5 -147.5t-16.5 -147.5t-53 -116.5t-94 -77t-139.5 -28zM342 129q69 0 99.5 57t30.5 172t-29.5 169t-99.5 54q-71 0 -101.5 -54t-30.5 -169
t30.5 -172t100.5 -57zM164 758v135h146v-135h-146zM376 758v135h145v-135h-145z" />
    <glyph glyph-name="Udieresis" unicode="&#xdc;" horiz-adv-x="664" 
d="M57 715h164v-382q0 -56 5 -94.5t17 -62t33 -33.5t53 -10q33 0 54 10t33 33t17 61.5t5 95.5v382h164v-412q0 -74 -12.5 -132t-43.5 -98.5t-83.5 -62t-133.5 -21.5q-80 0 -132.5 21.5t-83.5 62t-43.5 98.5t-12.5 132v412zM153 758v135h146v-135h-146zM365 758v135h145v-135
h-145z" />
    <glyph glyph-name="adieresis" unicode="&#xe4;" horiz-adv-x="493" 
d="M308 229q-10 2 -21 2.5t-19 0.5q-42 0 -68 -13t-26 -45q0 -20 9.5 -31.5t23.5 -17t29.5 -6.5t26.5 -1q20 0 45 5v106zM256 339q8 0 21.5 -0.5t30.5 -1.5q-1 39 -27.5 50.5t-68.5 11.5q-23 0 -53 -5.5t-65 -16.5l-16 55q-3 11 -8.5 32t-7.5 33q50 17 94.5 24.5t80.5 7.5
q106 0 164 -50.5t58 -161.5v-293q-39 -11 -90 -21.5t-110 -10.5q-52 0 -94.5 9t-73 30t-47 55t-16.5 83t20.5 82t53 52.5t73 27.5t81.5 8zM68 568v135h146v-135h-146zM280 568v135h145v-135h-145z" />
    <glyph glyph-name="numbersign" unicode="#" horiz-adv-x="734" 
d="M159 197h-107q0 12 0.5 31.5t0.5 30.5v61h116q2 25 4 45.5t4 48.5h-107v124h118l12 145h139l-14 -145h95l13 145h140l-14 -145h99v-124h-109q-2 -26 -4 -46t-4 -48h100v-123h-109l-3 -25l-11 -143h-140l14 168h-93l-6 -68q-2 -22 -4 -51t-3 -49h-141zM403 320
q2 25 4 45.5t4 48.5h-96q-2 -26 -4 -46t-4 -48h96z" />
    <glyph glyph-name="exclam" unicode="!" horiz-adv-x="299" 
d="M61 710h171l-10 -490h-152zM71 0v163h151v-163h-151z" />
    <glyph glyph-name="quotedbl" unicode="&#x22;" horiz-adv-x="429" 
d="M43 711h145v-291h-145v291zM229 711h146v-291h-146v291z" />
    </font>
</defs>
</svg>
