<svg xmlns="http://www.w3.org/2000/svg" width="912" height="904" viewBox="0 0 912 904" fill="none">
  <path d="M 638 171 L 579 157 L 541 170 L 354 367 L 367 182 L 334 164 L 286 173 L 265 188 L 241 284 L 224 502 L 229 643 L 252 698 L 299 704 L 326 685 L 347 508 L 520 703 L 554 711 L 593 687 L 603 666 L 596 632 L 438 430 L 633 233 L 650 196 Z M 814 82 L 753 43 L 666 16 L 420 0 L 209 31 L 147 57 L 95 97 L 34 199 L 3 363 L 17 597 L 40 681 L 72 737 L 28 856 L 41 895 L 79 903 L 230 842 L 429 875 L 653 867 L 752 841 L 827 789 L 862 741 L 891 662 L 911 398 L 883 193 L 855 131 Z M 779 119 L 813 159 L 837 213 L 861 405 L 847 633 L 826 703 L 796 748 L 739 791 L 644 817 L 419 824 L 225 790 L 85 848 L 126 732 L 88 669 L 68 600 L 53 372 L 74 238 L 124 140 L 169 103 L 219 81 L 424 52 L 645 64 L 719 84 Z" fill="#F6F2EB" fill-rule="evenodd"/>
  <path d="M 625 586 L 621 590 L 618 597 L 619 609 L 654 647 L 654 649 L 641 662 L 641 665 L 637 667 L 620 685 L 618 690 L 618 700 L 621 706 L 625 710 L 632 713 L 646 711 L 679 677 L 682 677 L 715 710 L 723 713 L 729 713 L 738 709 L 744 699 L 742 685 L 708 649 L 708 646 L 741 612 L 744 604 L 744 597 L 740 589 L 729 583 L 723 583 L 715 586 L 682 620 L 680 620 L 645 585 L 633 583 Z" fill="#FF5FA0" fill-rule="evenodd"/>
</svg>